PathFileType	4	(X/Y/Z)	./resultDataOpenSim/trcMotMarkerGrf/sub10/qtm-04-06.trc
DataRate	CameraRate	NumFrames	NumMarkers	Units	OrigDataRate	OrigDataStartFrame	OrigNumFrames
250.000000	250.000000	13	24	m	250.000000	311	497
Frame#	Time	L.Toe.Tip			R.Toe.Tip			L.Ankle.Lat			R.Ankle.Lat			L.Ankle.Med			R.Ankle.Med			L.Heel			R.Heel			L.Knee.Lat			R.Knee.Lat			L.Knee.Med			R.Knee.Med			L.Thigh.Upper			R.Thigh.Upper			L.ASIS			R.ASIS			V.Sacral			L.Acromium			R.Acromium			C7			L.Elbow			R.Elbow			L.Wrist.Lat			R.Wrist.Lat
		X1	Y1	Z1	X2	Y2	Z2	X3	Y3	Z3	X4	Y4	Z4	X5	Y5	Z5	X6	Y6	Z6	X7	Y7	Z7	X8	Y8	Z8	X9	Y9	Z9	X10	Y10	Z10	X11	Y11	Z11	X12	Y12	Z12	X13	Y13	Z13	X14	Y14	Z14	X15	Y15	Z15	X16	Y16	Z16	X17	Y17	Z17	X18	Y18	Z18	X19	Y19	Z19	X20	Y20	Z20	X21	Y21	Z21	X22	Y22	Z22	X23	Y23	Z23	X24	Y24	Z24

311	1.24	0.04194378	-0.034763865	-0.11419904	0.79630815	0.039129841	0.086547091	-0.016092788	0.085419917	-0.15937497	0.65252853	0.055041111	0.11699437	0.008196374	0.095571271	-0.079926597	0.67460753	0.07960015	0.032353724	-0.073135398	0.11322933	-0.1132493	0.60373794	0.029614748	0.070832633	0.22257333	0.39419194	-0.17407884	0.62765713	0.45249929	0.12656789	0.23168516	0.35554648	-0.057254208	0.63089286	0.45814499	-0.0032207518	0.33039947	0.76539567	-0.19647247	0.43475747	0.8107067	0.17943997	0.418585	0.86476509	-0.15183441	0.47706697	0.89258341	0.086067087	0.25301582	0.88784845	0.016332982	0.42885718	1.3560879	-0.15534077	0.41628325	1.3394019	0.16326706	0.33743797	1.3769295	-0.0033862032	0.45169845	1.0120814	-0.24473527	0.23752203	1.0430315	0.1709398	0.68898601	0.96773012	-0.18101867	0.21138696	0.83293652	0.28275292
312	1.244	0.043580741	-0.034851505	-0.11442009	0.79660781	0.038921433	0.08661506	-0.0096502381	0.08745528	-0.15992089	0.65270488	0.055010722	0.11699096	0.015413886	0.09688004	-0.080524123	0.67485073	0.079329027	0.032334926	-0.065555548	0.11703085	-0.1127667	0.60391987	0.029612206	0.070863433	0.2317438	0.39419016	-0.17437148	0.63222089	0.452763	0.12671607	0.24134427	0.3549422	-0.057740477	0.63473177	0.45893976	-0.0028236091	0.33809938	0.76523072	-0.19592314	0.44087758	0.81259195	0.179918	0.42590132	0.86504537	-0.15009639	0.48344359	0.89407548	0.087203882	0.26037395	0.88925515	0.015350787	0.43522004	1.3573854	-0.15372335	0.42238814	1.3405786	0.16461116	0.34366051	1.3780868	-0.0019410847	0.45552451	1.0133987	-0.24346909	0.24504425	1.0439101	0.17207826	0.69240113	0.96666035	-0.18044517	0.21927365	0.8335933	0.28446684
313	1.248	0.045234004	-0.034580045	-0.11461871	0.79679533	0.038797337	0.086611114	-0.0030995829	0.089648067	-0.16039025	0.65279288	0.055008744	0.11696685	0.02262754	0.098359238	-0.081019835	0.67494599	0.079090517	0.03232195	-0.057927762	0.12097888	-0.11235913	0.6040552	0.029583779	0.070888338	0.24099862	0.39415888	-0.17467604	0.6367531	0.45283132	0.12683933	0.2514438	0.35412915	-0.058210702	0.63852565	0.45955307	-0.002402892	0.34576351	0.76506688	-0.19528365	0.44703279	0.81448493	0.1804714	0.43309197	0.86531819	-0.14841061	0.48956769	0.89547747	0.088103686	0.26672361	0.89116325	0.015091681	0.44151738	1.3586673	-0.15212641	0.42841407	1.3417539	0.16595223	0.34983679	1.3792633	-0.00062056413	0.45933949	1.0147256	-0.24231672	0.25247489	1.0448241	0.17323186	0.69579092	0.96554668	-0.17988025	0.2273641	0.83421942	0.28627681
314	1.252	0.047018817	-0.033886522	-0.11476534	0.79695967	0.038704994	0.086597834	0.0034793733	0.092060486	-0.16075363	0.6528707	0.055017873	0.11692359	0.029780456	0.10008765	-0.081397001	0.6750131	0.078880023	0.032304401	-0.050278127	0.12517876	-0.11212541	0.60415854	0.029552006	0.070919008	0.25033602	0.39411791	-0.17496782	0.64121959	0.45273695	0.12694589	0.26184693	0.35317267	-0.058754796	0.64233483	0.4600066	-0.0020095849	0.3533785	0.76490669	-0.19455894	0.4531742	0.81635857	0.18109431	0.44016772	0.86557691	-0.14678177	0.49554728	0.8968339	0.088891828	0.27257081	0.89327784	0.01526427	0.44775894	1.3599351	-0.1505609	0.43435767	1.3429214	0.16727632	0.35595187	1.3803751	0.00058985266	0.46314215	1.0160523	-0.24128349	0.25975822	1.0457539	0.17448021	0.69915279	0.96438879	-0.17932769	0.23559059	0.83479787	0.28815465
315	1.256	0.049043937	-0.032772267	-0.11485229	0.79712656	0.038622128	0.086607373	0.010079217	0.094726261	-0.16101001	0.65299512	0.055012388	0.11687533	0.036868691	0.10211135	-0.081636609	0.67512881	0.078689182	0.03228554	-0.042562863	0.12967594	-0.11211039	0.60424073	0.029523518	0.070950866	0.25976294	0.39407811	-0.17525129	0.64553892	0.45252802	0.12707648	0.27243347	0.35215652	-0.059472343	0.64611276	0.46029815	-0.0016098884	0.36094391	0.76475273	-0.19378742	0.4592719	0.81818813	0.18178232	0.44713477	0.86580602	-0.14521791	0.50150444	0.89818688	0.089716289	0.27858385	0.89527351	0.015445332	0.45394879	1.3611929	-0.14903947	0.44021302	1.344079	0.16857144	0.36197985	1.3813611	0.0017271896	0.46691992	1.0173855	-0.24031419	0.2668756	1.0466772	0.17584473	0.7024547	0.96316618	-0.17882526	0.24388144	0.83531858	0.29006231
316	1.26	0.051355904	-0.031287167	-0.1149096	0.79727883	0.038545435	0.086636334	0.016742651	0.097658099	-0.16115411	0.653171	0.054974537	0.11683901	0.043932429	0.10444127	-0.081725676	0.67527512	0.07850978	0.032288139	-0.03470298	0.13444324	-0.11225925	0.60430304	0.029495651	0.070980919	0.26925913	0.39403892	-0.17552803	0.64964765	0.45225339	0.12727154	0.28313542	0.35113776	-0.060351081	0.64980016	0.46042429	-0.001180286	0.36846327	0.7646135	-0.19299461	0.46530181	0.81995594	0.1825261	0.45397608	0.86599723	-0.14374032	0.50748863	0.89954732	0.090629339	0.28500061	0.89705403	0.015470017	0.4600848	1.3624445	-0.14757331	0.44597794	1.3452301	0.16983804	0.36788558	1.3822351	0.0028532156	0.47066112	1.0187296	-0.23937341	0.27390418	1.0475405	0.17728321	0.70566389	0.96185897	-0.17840897	0.2522094	0.83578229	0.29198169
317	1.264	0.053936033	-0.029498686	-0.11497895	0.79739318	0.03847743	0.086670164	0.023513474	0.10085786	-0.16117062	0.65335717	0.054904022	0.11682502	0.051031597	0.10705545	-0.081669598	0.67537065	0.078337133	0.032342332	-0.02664408	0.13940944	-0.11242723	0.60433739	0.029467111	0.071020787	0.27881371	0.3940028	-0.17577029	0.65353052	0.45195378	0.12754784	0.29388809	0.35013465	-0.061232596	0.65336071	0.46039262	-0.00072731922	0.37593757	0.76451183	-0.19218315	0.47123649	0.82164981	0.18330593	0.4606957	0.86619429	-0.14234281	0.51352532	0.9009112	0.091630566	0.29170857	0.89868569	0.015406322	0.46616736	1.3636938	-0.14616984	0.4516589	1.3463796	0.17108354	0.37363928	1.3830601	0.0040323919	0.47436174	1.0200819	-0.2384617	0.28098476	1.048256	0.17874039	0.70877227	0.96047228	-0.1780872	0.26059215	0.8361964	0.29392021
318	1.268	0.056742673	-0.027472428	-0.11508124	0.7974578	0.038420738	0.086703878	0.030414577	0.10431525	-0.16105187	0.65350246	0.054815226	0.11683396	0.058217315	0.10990677	-0.081486207	0.67536528	0.078175589	0.032455102	-0.018387817	0.14448868	-0.11244295	0.60433599	0.02944187	0.071088107	0.28850756	0.39398402	-0.17595478	0.65720548	0.45166113	0.12790309	0.30462793	0.34915503	-0.061937874	0.6567834	0.4602209	-0.00026939437	0.38336165	0.76448387	-0.19135916	0.47706267	0.82326422	0.18410188	0.46735983	0.86650472	-0.14096445	0.51964446	0.9022723	0.092719469	0.2984793	0.90023746	0.015380468	0.47220161	1.3649458	-0.14483344	0.45726597	1.3475277	0.17230758	0.37924126	1.3839027	0.0052847891	0.47802576	1.02144	-0.23759042	0.28819928	1.0487592	0.18019086	0.71180035	0.95903463	-0.17783982	0.26905749	0.83656849	0.29589104
319	1.272	0.059758838	-0.025270306	-0.11522556	0.79747599	0.038375243	0.086741513	0.037449082	0.1080041	-0.16080684	0.65358028	0.054725777	0.11685893	0.065511787	0.11293703	-0.081193257	0.67529936	0.078039827	0.032594554	-0.009983415	0.14959433	-0.11217222	0.60430176	0.029422676	0.071186412	0.29845846	0.39400439	-0.17609665	0.66069498	0.45139441	0.12832613	0.31534067	0.34823108	-0.06241046	0.66008119	0.45993189	0.00017667037	0.39072435	0.76456603	-0.19054239	0.48281161	0.82480713	0.18492109	0.47404514	0.8670172	-0.13954338	0.52579204	0.90360536	0.093853139	0.30501488	0.9017674	0.015479096	0.47819026	1.3662037	-0.14356909	0.46281032	1.3486704	0.17350127	0.38472921	1.3848185	0.0065621486	0.48166074	1.0228118	-0.23676072	0.29549625	1.0490543	0.18168935	0.71477551	0.95755936	-0.17764432	0.27762158	0.83690352	0.29789965
320	1.276	0.063009797	-0.0229473	-0.11543294	0.79746166	0.038337522	0.086785359	0.044605368	0.11188848	-0.16045945	0.65359695	0.054645959	0.11689067	0.072911905	0.11609603	-0.080805414	0.67525308	0.077943876	0.032719636	-0.0014981331	0.15465312	-0.11155066	0.60425085	0.02940431	0.071292624	0.30866833	0.39409273	-0.17620463	0.66401176	0.45115702	0.12879922	0.32605449	0.34742213	-0.062707347	0.66327693	0.45955314	0.00060423477	0.39801232	0.76478264	-0.18974192	0.48855686	0.82630036	0.18580456	0.48073557	0.86770807	-0.13810513	0.53179858	0.90486451	0.094924416	0.31098977	0.90336264	0.015730218	0.48413102	1.3674699	-0.14238163	0.46830243	1.349806	0.17465752	0.39016176	1.385854	0.0077673153	0.485267	1.0242181	-0.2359753	0.30274947	1.0492017	0.18335003	0.7177057	0.95603605	-0.17749705	0.28629106	0.83720648	0.29994404
321	1.28	0.066547322	-0.020530919	-0.11573541	0.79742992	0.038304327	0.086832396	0.051863098	0.1159325	-0.16003576	0.65357523	0.054577787	0.1169233	0.080409524	0.1193564	-0.080335923	0.67526197	0.077888511	0.032818175	0.0070159776	0.15962261	-0.11059224	0.60420226	0.029378572	0.0713718	0.31902626	0.39428256	-0.17624613	0.66716231	0.45094588	0.12930365	0.33680128	0.34679353	-0.062889946	0.66637585	0.45911976	0.0010274247	0.40521597	0.76514506	-0.18894269	0.49433365	0.82775502	0.18677258	0.48733086	0.8684904	-0.13674743	0.5375551	0.90602835	0.095865725	0.31628277	0.90507632	0.016113725	0.49002203	1.3687508	-0.14126829	0.4737426	1.3509417	0.1757756	0.39558725	1.3870266	0.008816477	0.48883173	1.0256903	-0.23528008	0.30987162	1.0492862	0.18521246	0.72057707	0.95446931	-0.17740595	0.29506814	0.83748626	0.3020175
322	1.284	0.070434638	-0.017995478	-0.11615993	0.79739056	0.038276235	0.086879829	0.059202335	0.12010038	-0.15954446	0.65353498	0.054520031	0.11695589	0.088003761	0.12271108	-0.079796712	0.67530889	0.077863624	0.032903524	0.015543101	0.16449885	-0.10939027	0.60416661	0.029344238	0.07140599	0.3294558	0.39459168	-0.17619686	0.6701517	0.45076132	0.12982967	0.34760721	0.34639972	-0.062966223	0.66934741	0.45866968	0.0014854111	0.41233065	0.76565897	-0.18813238	0.50004326	0.82913982	0.18776102	0.49376156	0.86933771	-0.13553589	0.54313727	0.9071247	0.096723891	0.32120452	0.90683037	0.016573386	0.49586602	1.370055	-0.14021804	0.47911879	1.3520922	0.1768587	0.40102149	1.3883032	0.009701062	0.49234612	1.0272607	-0.23475876	0.31687942	1.0493778	0.18715854	0.72337287	0.95287855	-0.17737561	0.303955	0.83775559	0.30411223
323	1.288	0.074740714	-0.015265487	-0.11670773	0.79734846	0.038255833	0.086929549	0.066613522	0.12435303	-0.15897011	0.65348742	0.054471025	0.11698952	0.095697817	0.12615823	-0.079198608	0.67536742	0.077859683	0.032990632	0.024093023	0.16930871	-0.10810627	0.6041468	0.029307667	0.071402181	0.33996864	0.39501212	-0.17607364	0.67297765	0.45060494	0.13037505	0.35849993	0.34627752	-0.062908412	0.6721499	0.45823479	0.0020208784	0.41935085	0.7663291	-0.18732571	0.50549288	0.83039283	0.18864812	0.50003582	0.87029831	-0.13446601	0.54867216	0.90819	0.097577604	0.326298	0.90846693	0.017054797	0.50166797	1.371386	-0.13922115	0.48442075	1.3532719	0.17791066	0.40646401	1.3896273	0.010469563	0.49583213	1.0289355	-0.23442159	0.32388012	1.0494971	0.18900666	0.72608889	0.95125498	-0.17740385	0.3129571	0.83802549	0.30622165
